<svg width="512" height="512" viewBox="0 0 512 512" fill="none" xmlns="http://www.w3.org/2000/svg">
<g clip-path="url(#clip0_221_2)">
<path d="M173.382 -0.26776C174.116 -0.272291 174.85 -0.276822 175.606 -0.281491C178.059 -0.29413 180.512 -0.292515 182.966 -0.290862C184.727 -0.296847 186.488 -0.303653 188.249 -0.311217C193.03 -0.328882 197.811 -0.333573 202.592 -0.334849C205.581 -0.336271 208.569 -0.340541 211.557 -0.345843C221.986 -0.364345 232.415 -0.372513 242.844 -0.37094C252.559 -0.369739 262.274 -0.390837 271.989 -0.422427C280.335 -0.448596 288.68 -0.459307 297.026 -0.458029C302.009 -0.45752 306.991 -0.463196 311.973 -0.484385C316.661 -0.503777 321.348 -0.503885 326.036 -0.489352C327.753 -0.487264 329.47 -0.491965 331.188 -0.504073C348.52 -0.61834 348.52 -0.61834 356.208 5.85904C356.738 6.48295 357.268 7.10685 357.814 7.74967C358.357 8.36326 358.899 8.97685 359.458 9.60904C364.41 17.2802 364.444 24.5163 364.4 33.4059C364.403 34.6852 364.406 35.9645 364.409 37.2825C364.413 39.9789 364.407 42.6749 364.393 45.3712C364.375 48.8075 364.385 52.243 364.403 55.6792C364.417 58.984 364.407 62.2886 364.4 65.5934C364.406 66.8176 364.412 68.0417 364.418 69.303C364.356 76.8725 363.394 82.2149 360.001 88.9997C360.873 89.4495 361.744 89.8994 362.642 90.3629C371.673 95.1781 378.82 100.738 386.001 108C386.888 108.876 387.775 109.753 388.689 110.656C406.178 128.785 413.722 153.192 413.456 177.975C413.454 179.484 413.455 180.994 413.457 182.504C413.458 186.542 413.435 190.58 413.407 194.619C413.382 198.861 413.38 203.104 413.375 207.347C413.363 215.354 413.33 223.361 413.29 231.368C413.245 240.495 413.223 249.622 413.203 258.749C413.161 277.499 413.091 296.25 413.001 315C414.425 315.452 414.425 315.452 415.878 315.914C421.247 317.78 424.478 321.414 427.333 326.261C429.506 331.029 430.189 335.096 430.099 340.332C430.085 341.398 430.071 342.463 430.056 343.561C430.029 344.768 430.029 344.768 430.001 346C430.767 345.984 431.533 345.968 432.321 345.952C435.84 345.889 439.358 345.85 442.876 345.812C444.682 345.774 444.682 345.774 446.525 345.736C456.933 345.651 465.635 346.574 473.306 354.074C479.953 361.625 479.451 369.419 479.001 379C479.68 378.965 480.358 378.93 481.056 378.894C491.09 378.602 498.546 380.089 506.212 386.793C512.23 394.216 512.664 401.046 512.578 410.298C512.564 412.365 512.598 414.426 512.636 416.492C512.684 424.568 511.918 431.353 507.001 438C500.65 443.987 494.948 446.343 486.189 446.125C485.496 446.116 484.803 446.107 484.089 446.097C482.393 446.074 480.697 446.038 479.001 446C479.059 446.966 479.117 447.933 479.177 448.929C479.466 457.25 479.32 464.16 474.001 471C467.916 476.877 462.214 479.265 453.732 479.195C452.71 479.191 452.71 479.191 451.668 479.186C449.508 479.175 447.349 479.15 445.189 479.125C443.718 479.115 442.248 479.106 440.777 479.097C437.185 479.075 433.593 479.041 430.001 479C430.02 479.876 430.038 480.752 430.056 481.654C430.07 482.813 430.085 483.971 430.099 485.164C430.117 486.308 430.135 487.452 430.154 488.631C429.801 496.435 426.551 502.131 421.076 507.527C414.614 512.115 408.808 512.456 401.099 512.433C399.544 512.441 399.544 512.441 397.958 512.449C395.774 512.456 393.589 512.454 391.405 512.446C388.078 512.437 384.752 512.466 381.425 512.498C379.296 512.499 377.166 512.499 375.037 512.496C374.05 512.507 373.063 512.518 372.047 512.53C364.722 512.457 359.507 510.841 353.794 506.211C353 505.302 353 505.302 352.189 504.375C351.646 503.784 351.104 503.194 350.544 502.586C340.943 486.495 346.001 461.071 346.001 446C286.601 446 227.201 446 166.001 446C166.001 460.52 166.001 475.04 166.001 490C162.597 501.347 162.597 501.347 159.814 504.375C159.284 504.981 158.754 505.586 158.208 506.211C151.536 511.619 145.438 512.6 137.001 512.531C135.966 512.535 134.931 512.539 133.865 512.543C131.686 512.545 129.508 512.538 127.33 512.521C124.011 512.5 120.695 512.521 117.376 512.547C115.251 512.544 113.126 512.539 111.001 512.531C110.018 512.539 109.034 512.547 108.021 512.555C100.725 512.457 95.4139 510.875 89.7944 506.14C83.9677 499.279 81.8383 494.309 81.9351 485.23C81.9446 484.062 81.9542 482.895 81.9641 481.692C81.9826 480.359 81.9826 480.359 82.0015 479C80.6714 479.039 80.6714 479.039 79.3145 479.079C75.9782 479.165 72.6431 479.227 69.3062 479.274C67.8707 479.299 66.4355 479.333 65.0005 479.377C56.1747 479.638 48.3874 479.545 41.0015 474C35.0176 467.642 32.6584 461.95 32.8765 453.187C32.8855 452.494 32.8945 451.801 32.9038 451.088C32.9272 449.391 32.9631 447.696 33.0015 446C32.0347 446.058 31.0679 446.116 30.0718 446.175C21.7511 446.464 14.8408 446.318 8.00147 441C0.363088 433.09 -0.371586 425.41 -0.369139 414.817C-0.3735 412.703 -0.409822 410.592 -0.447752 408.478C-0.522687 399.663 0.118902 393.789 5.79053 386.793C14.0394 379.579 22.2858 378.45 33.0015 379C32.9551 378.01 32.9087 377.02 32.8608 376C32.5687 367.262 32.7302 360.852 38.6968 354.074C46.3677 346.574 55.0696 345.651 65.478 345.736C66.682 345.761 67.886 345.786 69.1265 345.812C70.3691 345.826 71.6118 345.839 72.8921 345.853C75.929 345.888 78.965 345.937 82.0015 346C81.9833 345.195 81.9652 344.39 81.9465 343.561C81.9254 341.963 81.9254 341.963 81.9038 340.332C81.8857 339.28 81.8676 338.227 81.8489 337.143C82.2242 329.412 85.6138 323.709 91.0249 318.375C93.5301 316.632 96.106 315.92 99.0015 315C98.9978 314.227 98.9941 313.454 98.9903 312.658C98.9016 293.783 98.8356 274.909 98.7942 256.034C98.7737 246.906 98.7457 237.779 98.6997 228.651C98.6596 220.688 98.634 212.725 98.6251 204.761C98.6199 200.551 98.6079 196.342 98.5785 192.132C98.551 188.155 98.5431 184.179 98.549 180.202C98.5479 178.756 98.5402 177.31 98.5246 175.865C98.2587 149.856 108.057 126.715 126.001 108C126.588 107.362 127.175 106.723 127.779 106.066C134.698 98.7564 143.169 93.6811 152.001 88.9997C151.578 88.1523 151.578 88.1523 151.145 87.2879C147.803 79.9369 147.417 73.4677 147.47 65.4684C147.466 64.1967 147.463 62.925 147.459 61.6148C147.456 58.9383 147.461 56.2633 147.48 53.5871C147.503 50.1845 147.49 46.7833 147.466 43.3808C147.448 40.0975 147.46 36.8143 147.47 33.5309C147.462 32.3233 147.454 31.1158 147.446 29.8716C147.539 21.4057 148.684 14.0357 154.185 7.34342C154.929 6.73498 155.673 6.12654 156.439 5.49967C157.551 4.55607 157.551 4.55607 158.685 3.59342C163.535 0.256634 167.534 -0.252823 173.382 -0.26776ZM168.063 18.8518C164.997 22.9063 164.997 22.9063 166.001 32.9997C225.401 32.9997 284.801 32.9997 346.001 32.9997C347.006 22.9063 347.006 22.9063 343.94 18.8518C340.337 16.581 338.228 16.3712 333.98 16.3647C333.285 16.3569 332.59 16.3491 331.874 16.3411C329.551 16.3212 327.23 16.3369 324.908 16.3527C323.24 16.3459 321.573 16.337 319.905 16.3261C315.38 16.3034 310.856 16.3122 306.331 16.328C301.596 16.3407 296.86 16.329 292.125 16.3211C284.172 16.312 276.22 16.324 268.267 16.3478C259.073 16.375 249.88 16.3662 240.686 16.3387C232.792 16.316 224.898 16.3128 217.004 16.3259C212.29 16.3337 207.575 16.3347 202.861 16.3182C198.428 16.3037 193.996 16.3138 189.564 16.3427C187.937 16.3493 186.311 16.3474 184.684 16.3363C182.463 16.3227 180.244 16.3398 178.023 16.3647C176.159 16.3676 176.159 16.3676 174.258 16.3705C170.901 16.8148 170.901 16.8148 168.063 18.8518ZM166.001 49.9997C165.867 54.3965 165.767 58.7892 165.689 63.1872C165.647 64.433 165.605 65.6789 165.562 66.9626C165.415 73.9668 165.415 73.9668 167.896 80.3629C171.891 82.7767 171.891 82.7767 181.001 81.9997C181.001 71.4397 181.001 60.8797 181.001 49.9997C176.051 49.9997 171.101 49.9997 166.001 49.9997ZM199.001 49.9997C199.001 60.5597 199.001 71.1197 199.001 81.9997C203.951 81.9997 208.901 81.9997 214.001 81.9997C214.001 71.4397 214.001 60.8797 214.001 49.9997C209.051 49.9997 204.101 49.9997 199.001 49.9997ZM232.001 49.9997C232.001 60.5597 232.001 71.1197 232.001 81.9997C236.951 81.9997 241.901 81.9997 247.001 81.9997C247.001 71.4397 247.001 60.8797 247.001 49.9997C242.051 49.9997 237.101 49.9997 232.001 49.9997ZM265.001 49.9997C265.001 60.5597 265.001 71.1197 265.001 81.9997C269.951 81.9997 274.901 81.9997 280.001 81.9997C280.001 71.4397 280.001 60.8797 280.001 49.9997C275.051 49.9997 270.101 49.9997 265.001 49.9997ZM298.001 49.9997C298.001 60.5597 298.001 71.1197 298.001 81.9997C302.951 81.9997 307.901 81.9997 313.001 81.9997C313.001 71.4397 313.001 60.8797 313.001 49.9997C308.051 49.9997 303.101 49.9997 298.001 49.9997ZM331.001 49.9997C331.001 60.5597 331.001 71.1197 331.001 81.9997C340.112 82.7767 340.112 82.7767 344.107 80.3629C347.191 74.8871 346.521 69.3451 346.314 63.1872C346.291 61.9219 346.269 60.6567 346.246 59.3532C346.187 56.2348 346.097 53.1171 346.001 49.9997C341.051 49.9997 336.101 49.9997 331.001 49.9997ZM130.751 128.84C119.212 145.122 115.498 163.378 115.661 183.013C115.662 184.444 115.661 185.875 115.66 187.305C115.659 191.137 115.676 194.969 115.697 198.8C115.716 202.824 115.718 206.848 115.721 210.872C115.731 218.468 115.755 226.064 115.785 233.66C115.819 242.318 115.835 250.976 115.85 259.634C115.882 277.423 115.935 295.211 116.001 313C121.281 313 126.561 313 132.001 313C132.007 311.172 132.013 309.345 132.019 307.462C132.077 290.218 132.149 272.975 132.237 255.731C132.282 246.866 132.321 238.002 132.348 229.137C132.371 221.407 132.404 213.676 132.45 205.946C132.474 201.856 132.493 197.767 132.499 193.677C132.505 189.82 132.525 185.962 132.556 182.104C132.564 180.697 132.568 179.289 132.566 177.882C132.551 159.771 137.373 144.349 150.001 131C158.284 123.165 169.035 115.877 180.732 115.873C181.928 115.87 183.123 115.867 184.354 115.864C185.668 115.866 186.982 115.868 188.335 115.87C189.732 115.869 191.128 115.867 192.525 115.865C196.325 115.86 200.126 115.862 203.927 115.865C207.92 115.868 211.913 115.866 215.906 115.864C222.631 115.862 229.355 115.865 236.08 115.869C243.805 115.875 251.531 115.873 259.256 115.867C265.915 115.863 272.573 115.862 279.232 115.865C283.196 115.866 287.161 115.867 291.125 115.863C319.421 115.843 319.421 115.843 331.685 116.348C332.456 116.373 333.226 116.399 334.019 116.425C341.021 116.785 346.293 119.066 352.001 123C352.881 123.602 353.76 124.204 354.666 124.824C368.109 134.836 375.942 148.656 379.001 165C379.416 169.982 379.44 174.951 379.434 179.948C379.443 181.408 379.453 182.868 379.465 184.328C379.492 188.252 379.502 192.177 379.508 196.102C379.517 200.218 379.543 204.334 379.568 208.45C379.611 216.227 379.64 224.004 379.663 231.781C379.69 240.642 379.734 249.503 379.779 258.364C379.872 276.576 379.943 294.788 380.001 313C385.281 313 390.561 313 396.001 313C396.071 294.353 396.125 275.707 396.157 257.06C396.172 248.401 396.193 239.741 396.228 231.082C396.258 223.528 396.277 215.975 396.284 208.421C396.288 204.427 396.297 200.433 396.319 196.439C396.339 192.667 396.345 188.896 396.341 185.124C396.342 183.106 396.358 181.087 396.375 179.068C396.33 165.542 393.928 153.242 388.001 141C387.621 140.211 387.241 139.422 386.849 138.609C377.572 120.742 361.889 108.138 343.29 100.952C339.705 99.9139 336.731 99.7371 333.003 99.7188C332.322 99.7128 331.642 99.7069 330.941 99.7008C328.672 99.6835 326.405 99.6804 324.136 99.6774C322.505 99.6681 320.873 99.6581 319.241 99.6473C314.815 99.6211 310.389 99.6082 305.963 99.5993C303.192 99.5934 300.421 99.5852 297.65 99.5763C288.963 99.5489 280.277 99.5296 271.59 99.5219C261.594 99.5129 251.599 99.4779 241.603 99.4199C233.857 99.3765 226.112 99.3565 218.366 99.3538C213.75 99.3517 209.133 99.3401 204.517 99.3042C200.166 99.2709 195.815 99.267 191.464 99.2844C189.878 99.286 188.293 99.2775 186.708 99.2575C163.509 98.9828 145.06 110.78 130.751 128.84ZM167.001 139C165.58 140.019 165.58 140.019 164.13 141.058C155.207 149.196 149.479 160.768 148.853 172.863C148.843 173.92 148.832 174.976 148.821 176.065C148.806 177.284 148.792 178.502 148.777 179.757C148.766 181.099 148.756 182.441 148.745 183.783C148.731 185.202 148.716 186.622 148.701 188.041C148.571 200.966 148.505 213.891 148.453 226.816C148.414 236.367 148.346 245.916 148.238 255.465C148.166 262.186 148.127 268.907 148.114 275.629C148.105 279.641 148.081 283.653 148.019 287.665C147.962 291.439 147.947 295.21 147.965 298.984C147.964 300.367 147.948 301.75 147.915 303.132C147.527 310.721 147.527 310.721 150.971 317.07C153.324 318.69 153.324 318.69 155.782 319.847C159.285 321.666 161.363 324.458 163.001 328C167.132 344.521 165.606 361.975 166.001 379C225.401 379 284.801 379 346.001 379C346.331 364.81 346.661 350.62 347.001 336C350.551 324.168 353.069 320.585 363.001 315C363.072 296.284 363.125 277.568 363.157 258.853C363.172 250.162 363.193 241.471 363.228 232.78C363.258 225.202 363.277 217.623 363.284 210.044C363.288 206.035 363.297 202.026 363.319 198.016C363.339 194.235 363.345 190.454 363.341 186.672C363.342 184.638 363.358 182.604 363.375 180.57C363.332 167.716 360.505 154.405 351.654 144.507C344.802 138.255 338.039 132.768 328.589 132.719C327.627 132.71 327.627 132.71 326.645 132.701C324.498 132.683 322.35 132.68 320.202 132.677C318.661 132.668 317.12 132.658 315.579 132.647C311.393 132.621 307.207 132.608 303.02 132.599C300.402 132.593 297.785 132.585 295.167 132.576C286.969 132.549 278.771 132.53 270.572 132.522C261.123 132.513 251.673 132.478 242.224 132.42C234.911 132.377 227.599 132.356 220.287 132.354C215.924 132.352 211.561 132.34 207.197 132.304C203.088 132.271 198.98 132.267 194.871 132.284C193.369 132.286 191.867 132.277 190.365 132.258C181.087 132.142 174.503 133.185 167.001 139ZM101.786 332.637C99.4657 335.709 99.4963 337.502 99.4868 341.331C99.4741 342.634 99.4614 343.936 99.4482 345.278C99.4544 346.72 99.461 348.161 99.468 349.603C99.461 351.122 99.4522 352.642 99.4419 354.162C99.4194 358.288 99.4224 362.413 99.4312 366.54C99.4363 369.984 99.4291 373.428 99.4218 376.873C99.4048 384.999 99.4083 393.124 99.425 401.25C99.442 409.633 99.4261 418.016 99.3938 426.399C99.3671 433.597 99.3599 440.794 99.3683 447.992C99.3733 452.291 99.371 456.589 99.3506 460.888C99.3322 464.931 99.3381 468.972 99.3628 473.015C99.3678 474.498 99.3643 475.981 99.3516 477.464C99.3357 479.49 99.3536 481.515 99.3733 483.541C99.3739 484.674 99.3744 485.807 99.3751 486.975C100.197 490.945 101.921 492.456 105.001 495C106.973 495.731 106.973 495.731 108.978 495.647C110.094 495.67 110.094 495.67 111.233 495.694C112.023 495.684 112.813 495.674 113.626 495.664C114.863 495.671 114.863 495.671 116.125 495.678C117.863 495.682 119.601 495.672 121.339 495.652C123.994 495.625 126.644 495.651 129.298 495.683C130.991 495.68 132.684 495.674 134.376 495.664C135.166 495.674 135.956 495.684 136.77 495.694C137.514 495.679 138.258 495.663 139.025 495.647C139.674 495.643 140.323 495.639 140.991 495.635C144.257 494.603 145.822 492.582 148.001 490C148.746 486.949 148.746 486.949 148.636 483.586C148.65 482.29 148.665 480.995 148.679 479.66C148.669 478.232 148.659 476.803 148.648 475.375C148.655 473.865 148.664 472.355 148.675 470.845C148.698 466.75 148.689 462.655 148.673 458.56C148.66 454.273 148.672 449.986 148.68 445.699C148.689 438.5 148.677 431.301 148.653 424.101C148.626 415.78 148.635 407.459 148.662 399.138C148.685 391.991 148.688 384.845 148.675 377.698C148.667 373.43 148.666 369.163 148.683 364.896C148.697 360.883 148.687 356.872 148.658 352.86C148.652 351.388 148.654 349.916 148.665 348.444C148.678 346.434 148.658 344.424 148.636 342.414C148.634 341.289 148.633 340.165 148.631 339.006C147.803 335.05 146.072 333.536 143.001 331C140.981 330.273 140.981 330.273 138.917 330.369C138.15 330.356 137.382 330.344 136.591 330.331C135.777 330.344 134.962 330.357 134.123 330.371C133.273 330.368 132.424 330.366 131.55 330.363C129.76 330.364 127.971 330.378 126.181 330.403C123.444 330.437 120.71 330.423 117.972 330.404C116.231 330.411 114.489 330.421 112.748 330.433C111.522 330.426 111.522 330.426 110.273 330.418C106.876 330.489 104.563 330.585 101.786 332.637ZM364.001 336C363.257 339.05 363.257 339.05 363.367 342.414C363.352 343.709 363.338 345.005 363.324 346.339C363.334 347.768 363.344 349.196 363.354 350.625C363.348 352.135 363.339 353.644 363.328 355.154C363.305 359.249 363.314 363.344 363.33 367.439C363.342 371.726 363.331 376.013 363.323 380.3C363.314 387.5 363.326 394.699 363.35 401.898C363.377 410.219 363.368 418.54 363.34 426.862C363.318 434.008 363.315 441.155 363.328 448.301C363.335 452.569 363.337 456.836 363.32 461.104C363.306 465.116 363.316 469.128 363.344 473.14C363.351 474.612 363.349 476.083 363.338 477.555C363.324 479.565 363.345 481.576 363.367 483.586C363.368 484.71 363.37 485.835 363.372 486.993C364.2 490.948 365.934 492.463 369.001 495C370.973 495.731 370.973 495.731 372.978 495.647C374.094 495.67 374.094 495.67 375.233 495.694C376.023 495.684 376.813 495.674 377.626 495.664C378.863 495.671 378.863 495.671 380.125 495.678C381.863 495.682 383.601 495.672 385.339 495.652C387.994 495.625 390.644 495.651 393.298 495.683C394.991 495.68 396.684 495.674 398.376 495.664C399.166 495.674 399.956 495.684 400.77 495.694C401.514 495.679 402.258 495.663 403.025 495.647C403.674 495.643 404.323 495.639 404.991 495.635C408.259 494.602 409.822 492.585 412.001 490C412.744 486.929 412.744 486.929 412.63 483.541C412.642 482.236 412.655 480.93 412.668 479.586C412.657 478.146 412.645 476.706 412.633 475.267C412.638 473.746 412.645 472.224 412.654 470.703C412.673 466.577 412.66 462.451 412.64 458.325C412.624 454.007 412.633 449.689 412.638 445.371C412.642 438.12 412.626 430.87 412.598 423.619C412.566 415.235 412.566 406.852 412.584 398.468C412.599 390.403 412.593 382.338 412.576 374.273C412.569 370.84 412.57 367.408 412.577 363.975C412.585 359.934 412.573 355.894 412.545 351.853C412.538 350.369 412.538 348.886 412.546 347.402C412.554 345.379 412.536 343.355 412.516 341.331C412.513 340.199 412.511 339.066 412.508 337.899C411.883 334.322 410.896 333.139 408.001 331C404.963 330.59 402.294 330.415 399.255 330.433C398.407 330.427 397.559 330.421 396.685 330.414C394.894 330.407 393.103 330.411 391.312 330.423C388.576 330.437 385.844 330.403 383.109 330.365C381.366 330.364 379.623 330.366 377.88 330.371C377.066 330.357 376.251 330.344 375.412 330.331C374.26 330.349 374.26 330.349 373.086 330.369C372.081 330.37 372.081 330.37 371.056 330.371C367.751 331.382 366.199 333.392 364.001 336ZM55.0015 364C49.8315 368.892 49.8315 368.892 49.3571 375.098C49.372 375.888 49.3868 376.677 49.4021 377.49C49.3982 378.333 49.3942 379.176 49.3902 380.044C49.3835 382.823 49.4126 385.6 49.4429 388.379C49.4471 390.312 49.4494 392.246 49.4499 394.18C49.4561 398.229 49.4788 402.278 49.5144 406.328C49.5597 411.518 49.5744 416.709 49.5781 421.9C49.5826 425.892 49.5979 429.883 49.617 433.875C49.6259 435.789 49.6326 437.703 49.6372 439.618C49.6462 442.291 49.6686 444.965 49.6951 447.639C49.6957 448.43 49.6964 449.221 49.6971 450.036C49.7058 455.367 49.7058 455.367 52.0015 460C60.9656 464.482 71.9793 462 82.0015 462C82.0015 429.66 82.0015 397.32 82.0015 364C73.0915 364 64.1815 364 55.0015 364ZM430.001 364C430.001 396.34 430.001 428.68 430.001 462C445.531 463.241 445.531 463.241 460.001 460C462.779 456.383 462.304 451.995 462.308 447.639C462.316 446.797 462.325 445.956 462.333 445.09C462.357 442.311 462.366 439.532 462.373 436.754C462.382 434.821 462.391 432.888 462.4 430.955C462.416 426.904 462.424 422.853 462.427 418.802C462.432 413.612 462.47 408.423 462.516 403.233C462.545 399.242 462.553 395.25 462.554 391.258C462.558 389.345 462.57 387.431 462.591 385.518C462.618 382.842 462.613 380.167 462.601 377.49C462.616 376.701 462.631 375.912 462.646 375.098C462.565 369.007 461.778 368.776 457.001 364C448.091 364 439.181 364 430.001 364ZM18.8413 398.84C16.1707 403.427 16.3821 407.352 16.564 412.562C16.5698 413.508 16.5756 414.453 16.5815 415.427C16.5887 421.528 16.5887 421.528 19.0015 427C23.7468 429.745 23.7468 429.745 33.0015 429C33.0015 418.44 33.0015 407.88 33.0015 397C22.9764 396.077 22.9764 396.077 18.8413 398.84ZM166.001 397C166.001 407.56 166.001 418.12 166.001 429C225.401 429 284.801 429 346.001 429C346.001 418.44 346.001 407.88 346.001 397C286.601 397 227.201 397 166.001 397ZM479.001 397C479.001 407.56 479.001 418.12 479.001 429C488.256 429.745 488.256 429.745 493.001 427C495.953 422.61 495.408 417.662 495.439 412.562C495.472 411.621 495.505 410.679 495.539 409.709C495.573 405.324 495.398 402.681 493.162 398.84C489.027 396.077 489.027 396.077 479.001 397Z" fill="white"/>
<path d="M233 165C252.8 165 272.6 165 293 165C291.102 170.858 289.205 176.715 287.25 182.75C286.66 184.572 286.07 186.395 285.462 188.272C284.98 189.76 284.498 191.247 284.016 192.734C283.777 193.472 283.538 194.209 283.292 194.969C281.231 201.326 279.113 207.66 277 214C290.86 214 304.72 214 319 214C315.8 222.321 312.56 230.549 309.035 238.727C308.569 239.814 308.102 240.901 307.622 242.021C306.105 245.557 304.584 249.091 303.062 252.625C302 255.096 300.938 257.566 299.876 260.037C298.236 263.851 296.596 267.665 294.954 271.478C291.705 279.026 288.468 286.578 285.243 294.135C283.246 298.812 281.244 303.487 279.241 308.162C278.295 310.372 277.351 312.583 276.41 314.796C275.099 317.877 273.779 320.954 272.457 324.031C272.078 324.928 271.699 325.824 271.308 326.748C267.899 334.641 264.823 341.748 257 346C250.925 348.025 243.548 348.1 237.625 345.5C232.482 342.504 228.865 337.594 227 332C226.217 323.18 227.807 315.667 230.465 307.305C230.818 306.15 231.17 304.995 231.534 303.806C232.653 300.157 233.795 296.516 234.938 292.875C235.701 290.394 236.464 287.912 237.225 285.43C238.614 280.918 240.006 276.407 241.418 271.902C241.7 271.001 241.982 270.1 242.272 269.172C243 267 243 267 244 265C227.5 265 211 265 194 265C194.692 261.54 195.29 258.963 196.563 255.792C197.045 254.583 197.045 254.583 197.536 253.349C197.888 252.479 198.239 251.608 198.602 250.712C199.158 249.321 199.158 249.321 199.725 247.902C200.95 244.843 202.18 241.787 203.41 238.73C204.261 236.608 205.112 234.485 205.962 232.362C208.199 226.779 210.441 221.199 212.684 215.618C215.375 208.92 218.06 202.219 220.746 195.519C224.826 185.344 228.914 175.172 233 165ZM245 182C241.737 190.178 238.476 198.358 235.221 206.539C233.71 210.338 232.197 214.136 230.681 217.933C229.219 221.595 227.761 225.258 226.305 228.923C225.748 230.323 225.189 231.722 224.63 233.121C223.848 235.076 223.071 237.033 222.295 238.99C221.851 240.104 221.407 241.219 220.949 242.368C219.887 244.847 219.887 244.847 220 247C243.265 247.495 243.265 247.495 267 248C265.328 253.512 263.656 259.024 261.934 264.703C260.88 268.194 259.826 271.684 258.775 275.176C257.106 280.719 255.435 286.262 253.751 291.8C252.394 296.265 251.046 300.733 249.705 305.202C249.192 306.908 248.675 308.613 248.154 310.317C247.426 312.701 246.71 315.089 245.998 317.478C245.779 318.183 245.56 318.889 245.335 319.616C244.325 323.052 243.611 325.6 245 329C246.837 329.772 246.837 329.772 249 330C251.706 327.855 252.858 325.479 254.182 322.337C254.588 321.384 254.994 320.431 255.412 319.449C255.846 318.41 256.28 317.371 256.727 316.301C257.187 315.213 257.648 314.126 258.123 313.006C259.631 309.444 261.128 305.878 262.625 302.312C263.658 299.867 264.691 297.422 265.725 294.978C267.556 290.648 269.384 286.317 271.209 281.984C274.222 274.834 277.255 267.691 280.301 260.555C280.702 259.615 281.102 258.676 281.515 257.708C283.025 254.168 284.535 250.629 286.047 247.09C287.063 244.711 288.077 242.33 289.09 239.949C289.538 238.902 289.538 238.902 289.995 237.833C291.398 235.012 291.398 235.012 292 232C278.8 232 265.6 232 252 232C252.987 229.145 253.975 226.289 254.992 223.348C255.953 220.558 256.912 217.768 257.872 214.977C258.535 213.05 259.201 211.123 259.868 209.196C260.83 206.415 261.787 203.631 262.742 200.848C263.038 199.997 263.334 199.147 263.639 198.271C263.919 197.451 264.199 196.63 264.488 195.785C264.732 195.077 264.976 194.369 265.228 193.639C266.348 189.811 267.135 185.893 268 182C260.41 182 252.82 182 245 182Z" fill="white"/>
</g>
<defs>
<clipPath id="clip0_221_2">
<rect width="512" height="512" fill="white"/>
</clipPath>
</defs>
</svg>
